<?xml version="1.0" encoding="utf-8"?>
<!-- Generator: Adobe Illustrator 25.4.1, SVG Export Plug-In . SVG Version: 6.00 Build 0)  -->
<svg version="1.1" id="Layer_1" xmlns="http://www.w3.org/2000/svg" xmlns:xlink="http://www.w3.org/1999/xlink" x="0px" y="0px"
	 viewBox="0 0 24 24" style="enable-background:new 0 0 24 24;" xml:space="preserve">
<g>
	<path d="M24,12.2c-0.1,0.2-0.1,0.4-0.2,0.6c-0.3,0.4-0.6,0.6-1.1,0.7c-0.6,0-1.1,0-1.7,0c-0.8,0-1.4-0.7-1.4-1.5
		c0-0.8,0.6-1.4,1.4-1.5c0.5,0,1.1,0,1.6,0c0.7,0,1.2,0.4,1.4,1.1c0,0,0,0.1,0,0.1C24,11.9,24,12.1,24,12.2z"/>
	<path d="M12.2,0c0.2,0.1,0.5,0.2,0.7,0.3c0.3,0.2,0.5,0.6,0.5,1c0,0.6,0,1.2,0,1.7c0,0.8-0.7,1.4-1.5,1.4c-0.8,0-1.4-0.6-1.5-1.4
		c0-0.6,0-1.1,0-1.7c0-0.7,0.4-1.2,1.1-1.4c0,0,0.1,0,0.1,0C11.9,0,12.1,0,12.2,0z"/>
	<path d="M3.1,4.4c0-0.5,0.3-0.9,0.9-1.2C4.5,3,5.1,3,5.5,3.5C6,3.8,6.4,4.3,6.8,4.7c0.5,0.6,0.5,1.5-0.1,2c-0.6,0.5-1.4,0.6-2,0
		C4.3,6.4,3.9,6,3.5,5.5C3.2,5.3,3.1,4.9,3.1,4.4z"/>
	<path d="M19.6,3.1c0.5,0,1,0.3,1.2,0.9C21,4.5,21,5.1,20.5,5.5c-0.4,0.4-0.8,0.8-1.2,1.2c-0.6,0.5-1.5,0.5-2-0.1
		c-0.6-0.6-0.6-1.5,0-2c0.4-0.4,0.8-0.8,1.2-1.2C18.7,3.2,19.1,3.1,19.6,3.1z"/>
	<path d="M3.1,19.6c0-0.5,0.1-0.9,0.4-1.2c0.4-0.4,0.7-0.7,1.1-1.1c0.6-0.6,1.5-0.6,2.1,0c0.6,0.6,0.6,1.5,0,2.1
		c-0.4,0.4-0.7,0.8-1.1,1.1c-0.5,0.4-1,0.5-1.6,0.3C3.4,20.5,3.1,20.1,3.1,19.6z"/>
	<path d="M20.9,19.6c0,0.5-0.3,0.9-0.9,1.2c-0.6,0.3-1.1,0.2-1.6-0.2c-0.4-0.4-0.8-0.8-1.2-1.2c-0.5-0.6-0.5-1.5,0.1-2
		c0.6-0.5,1.4-0.6,2-0.1c0.4,0.4,0.8,0.8,1.2,1.2C20.8,18.7,20.9,19.1,20.9,19.6z"/>
	<path d="M13.5,21.8c0,0.3,0,0.6,0,0.8c0,0.8-0.6,1.4-1.4,1.4c-0.8,0-1.5-0.6-1.5-1.3c0-0.6,0-1.2,0-1.9c0-0.7,0.7-1.3,1.5-1.3
		c0.8,0,1.4,0.6,1.4,1.4C13.5,21.2,13.5,21.5,13.5,21.8C13.5,21.8,13.5,21.8,13.5,21.8z"/>
	<path d="M2.2,13.5c-0.3,0-0.6,0-0.8,0c-0.8,0-1.4-0.7-1.4-1.4c0-0.8,0.6-1.5,1.3-1.5c0.6,0,1.2,0,1.8,0c0.8,0,1.3,0.7,1.3,1.5
		c0,0.8-0.6,1.4-1.4,1.4C2.8,13.5,2.5,13.5,2.2,13.5C2.2,13.5,2.2,13.5,2.2,13.5z"/>
	<g>
		<path d="M11.9,6c-3.3,0-6,2.7-5.9,6c0,3.3,2.7,6,6,5.9c3.4,0,6-2.7,6-6C17.9,8.6,15.3,6,11.9,6z M12,15c-1.1,0-1.9-0.4-2.5-1.3
			c-0.7-1-0.7-2.2-0.1-3.2C10,9.5,10.9,9,12,9C12,11,12,13,12,15z"/>
	</g>
</g>
</svg>
