<?xml version="1.0" encoding="utf-8"?>
<!-- Generator: Adobe Illustrator 25.4.1, SVG Export Plug-In . SVG Version: 6.00 Build 0)  -->
<svg version="1.1" id="Layer_1" xmlns="http://www.w3.org/2000/svg" xmlns:xlink="http://www.w3.org/1999/xlink" x="0px" y="0px"
	 viewBox="0 0 32 32" style="enable-background:new 0 0 32 32;" xml:space="preserve">
<style type="text/css">
	.st0{fill:url(#SVGID_1_);}
	.st1{fill:#FFFFFF;}
</style>
<g>
	<linearGradient id="SVGID_1_" gradientUnits="userSpaceOnUse" x1="0" y1="16" x2="32" y2="16">
		<stop  offset="0" style="stop-color:#681884"/>
		<stop  offset="1" style="stop-color:#41186D"/>
	</linearGradient>
	<path class="st0" d="M26.4,32H5.6C2.5,32,0,29.5,0,26.4V5.6C0,2.5,2.5,0,5.6,0h20.9C29.5,0,32,2.5,32,5.6v20.9
		C32,29.5,29.5,32,26.4,32z"/>
	<g>
		<path class="st1" d="M15.5,17.1c-0.3,0-0.5-0.1-0.8-0.3l-4.1-4.1c-0.1-1.4,1.2-1.8,1.9-1.1l4.1,4.1C16.6,16.6,16,17.1,15.5,17.1z"
			/>
		<path class="st1" d="M16,26.6c-2.6,0-5.1-0.9-7.2-2.8C4.4,19.7,4.2,12.7,8.6,8.4c1.4-0.1,1.8,1.1,1.2,1.8c-3.2,3.4-2.9,8.8,0.5,12
			c3.4,3.2,8.8,2.9,12-0.5c1.5-1.7,2.3-3.8,2.2-6.1c-0.1-2.3-1.1-4.4-2.7-5.9c-1.3-1.2-3-2-4.7-2.2l0,3.6c-0.9,1.1-2.1,0.4-2.1-0.5
			V6.5c0-0.6,0.5-1,1.1-1.1c2.7,0,5.2,1,7.2,2.8c2.9,2.7,4.1,6.7,3,10.8c-0.1,0.4-0.2,0.7-0.4,1.1C23.9,24.4,19.9,26.6,16,26.6z"/>
	</g>
</g>
</svg>
