<?xml version="1.0" encoding="utf-8"?>
<!-- Generator: Adobe Illustrator 25.4.1, SVG Export Plug-In . SVG Version: 6.00 Build 0)  -->
<svg version="1.1" id="Raw" xmlns="http://www.w3.org/2000/svg" xmlns:xlink="http://www.w3.org/1999/xlink" x="0px" y="0px"
	 viewBox="0 0 24 24" style="enable-background:new 0 0 24 24;" xml:space="preserve">
<path d="M12.2,23c-1.9,0-3.8-0.5-5.5-1.5c-2.6-1.5-4.5-3.9-5.3-6.7c-0.8-2.9-0.4-5.9,1-8.5C3.9,3.7,6.3,1.8,9.2,1
	C9.4,1,9.6,1,9.8,1.1c0.4,0.2,0.6,0.6,0.6,1c0,0.1,0,0.2,0,0.2c-0.4,1.6-0.4,3.3,0,4.9c0.7,2.4,2.2,4.3,4.3,5.5
	c2.1,1.2,4.6,1.5,7,0.9c0.1,0,0.2,0,0.3,0c0.4,0,0.8,0.3,1,0.7c0.1,0.2,0.1,0.4,0,0.6c-1,3.7-4,6.7-7.8,7.8
	C14.2,22.9,13.2,23,12.2,23z M8.2,3.6c-1.7,0.8-3,2.1-4,3.7c-1.2,2.1-1.5,4.6-0.9,7c0.7,2.4,2.2,4.3,4.3,5.5c2.1,1.2,4.6,1.5,7,0.9
	c2.5-0.7,4.6-2.5,5.8-4.8c-2.3,0.2-4.6-0.2-6.7-1.4c-2.6-1.5-4.5-3.9-5.3-6.7C8.1,6.4,8,4.9,8.2,3.6z"/>
</svg>
