<?xml version="1.0" encoding="utf-8"?>
<!-- Generator: Adobe Illustrator 25.4.1, SVG Export Plug-In . SVG Version: 6.00 Build 0)  -->
<svg version="1.1" id="Raw" xmlns="http://www.w3.org/2000/svg" xmlns:xlink="http://www.w3.org/1999/xlink" x="0px" y="0px"
	 viewBox="0 0 24 24" style="enable-background:new 0 0 24 24;" xml:space="preserve">
<g>
	<path d="M12,18.3c-3.5,0-6.3-2.8-6.3-6.3S8.5,5.7,12,5.7s6.3,2.8,6.3,6.3S15.5,18.3,12,18.3z M12,7.4c-2.6,0-4.6,2.1-4.6,4.6
		c0,2.6,2.1,4.6,4.6,4.6c2.6,0,4.6-2.1,4.6-4.6C16.6,9.4,14.6,7.4,12,7.4z"/>
	<path d="M12,4.5c-0.5,0-0.8-0.4-0.8-0.8V1.8C11.2,1.4,11.5,1,12,1s0.8,0.4,0.8,0.8v1.8C12.8,4.1,12.5,4.5,12,4.5z"/>
	<path d="M6.1,6.9c-0.2,0-0.4-0.1-0.6-0.2L4.2,5.4c-0.3-0.3-0.3-0.8,0-1.2c0.3-0.3,0.8-0.3,1.2,0l1.3,1.3C7,5.8,7,6.3,6.7,6.7
		C6.5,6.8,6.3,6.9,6.1,6.9z"/>
	<path d="M3.6,12.8H1.8C1.4,12.8,1,12.5,1,12s0.4-0.8,0.8-0.8h1.8c0.5,0,0.8,0.4,0.8,0.8S4.1,12.8,3.6,12.8z"/>
	<path d="M4.8,20c-0.2,0-0.4-0.1-0.6-0.2c-0.3-0.3-0.3-0.8,0-1.2l1.3-1.3c0.3-0.3,0.8-0.3,1.2,0c0.3,0.3,0.3,0.8,0,1.2l-1.3,1.3
		C5.2,19.9,5,20,4.8,20z"/>
	<path d="M12,23c-0.5,0-0.8-0.4-0.8-0.8v-1.8c0-0.5,0.4-0.8,0.8-0.8s0.8,0.4,0.8,0.8v1.8C12.8,22.6,12.5,23,12,23z"/>
	<path d="M19.2,20c-0.2,0-0.4-0.1-0.6-0.2l-1.3-1.3c-0.3-0.3-0.3-0.8,0-1.2c0.3-0.3,0.8-0.3,1.2,0l1.3,1.3c0.3,0.3,0.3,0.8,0,1.2
		C19.6,19.9,19.4,20,19.2,20z"/>
	<path d="M22.2,12.8h-1.8c-0.5,0-0.8-0.4-0.8-0.8s0.4-0.8,0.8-0.8h1.8c0.5,0,0.8,0.4,0.8,0.8S22.6,12.8,22.2,12.8z"/>
	<path d="M17.9,6.9c-0.2,0-0.4-0.1-0.6-0.2c-0.3-0.3-0.3-0.8,0-1.2l1.3-1.3c0.3-0.3,0.8-0.3,1.2,0c0.3,0.3,0.3,0.8,0,1.2l-1.3,1.3
		C18.3,6.8,18.1,6.9,17.9,6.9z"/>
</g>
</svg>
